<?xml version="1.0" standalone="no"?>
<!DOCTYPE svg PUBLIC "-//W3C//DTD SVG 20010904//EN"
 "http://www.w3.org/TR/2001/REC-SVG-20010904/DTD/svg10.dtd">
<svg version="1.0" xmlns="http://www.w3.org/2000/svg"
 width="48.000000pt" height="48.000000pt" viewBox="0 0 48.000000 48.000000"
 preserveAspectRatio="xMidYMid meet">
<metadata>
Created by potrace 1.16, written by Peter Selinger 2001-2019
</metadata>
<g transform="translate(0.000000,48.000000) scale(0.100000,-0.100000)"
fill="#000000" stroke="none">
<path d="M163 468 c-6 -7 -13 -21 -16 -30 -4 -12 -17 -18 -36 -18 -18 0 -41
-10 -55 -24 -29 -26 -35 -66 -11 -66 9 0 15 -10 16 -22 0 -13 3 -81 5 -152 3
-72 10 -136 16 -143 8 -10 49 -13 159 -13 188 0 179 -10 179 187 0 120 2 143
15 143 9 0 15 9 15 25 0 14 -4 25 -10 25 -5 0 -10 6 -10 14 0 14 -29 26 -65
26 -12 0 -27 13 -37 30 -16 29 -20 30 -86 30 -44 0 -73 -5 -79 -12z m195 -280
l-3 -143 -115 0 -115 0 -3 143 -3 142 121 0 121 0 -3 -142z"/>
</g>
</svg>
